# xmcd
#
# Track frame offsets:
# 150
# 34852
# 73491
# 109979
# 151118
# 183765
# 216869
# 254295
# 286764
# 318350
#
# Disc length: 4501 seconds
#
#
# Revision: 2
# Processed by: cddbd v1.5.2PL0 Copyright (c) Steve Scherf et al.
# Submitted via: FreeRIP 2.96 
#
DISCID=8d11930a
DTITLE=Fred Vargas - Es geht noch ein Zug von der Gare du Nord CD4
DYEAR=2009
DGENRE=Speech
TTITLE0=32 Es geht noch ein Zug von der Gare du Nord
TTITLE1=33 Es geht noch ein Zug von der Gare du Nord
TTITLE2=34 Es geht noch ein Zug von der Gare du Nord
TTITLE3=35 Es geht noch ein Zug von der Gare du Nord
TTITLE4=36 Es geht noch ein Zug von der Gare du Nord
TTITLE5=37 Es geht noch ein Zug von der Gare du Nord
TTITLE6=38 Es geht noch ein Zug von der Gare du Nord
TTITLE7=39 Es geht noch ein Zug von der Gare du Nord
TTITLE8=40 Es geht noch ein Zug von der Gare du Nord
TTITLE9=41 Es geht noch ein Zug von der Gare du Nord
EXTD=gelesen von Hannelore Hoger
EXTT0=
EXTT1=
EXTT2=
EXTT3=
EXTT4=
EXTT5=
EXTT6=
EXTT7=
EXTT8=
EXTT9=
PLAYORDER=
